<svg xmlns="http://www.w3.org/2000/svg" xmlns:xlink="http://www.w3.org/1999/xlink" version="1.1" id="Your_Icon" x="0px" y="0px" width="100px" height="100px" viewBox="0 0 100 100" enable-background="new 0 0 100 100" xml:space="preserve">
<g>
	<g>
		<g>
		</g>
	</g>
	<g>
	</g>
</g>
<path d="M81.734,81.745v0.906l-0.58,0.13l-0.453,0.195l-6.666,4.204L73,87.765l-0.453,0.195l-14.756,4.596l-1.164,0.062  l-9.064,0.973L18.178,75.468l-0.517-0.26l-0.193-0.387l-0.13-0.195l3.043-31.197l8.543-33.331l0.646-1.812l1.813-0.388l3.881-0.648  l2.009-0.258l0.519-0.259l0.775-0.191l0.193-0.132l32.167,8.35l0.842,1.1l0.066,1.618l-0.326,4.725l-0.646,0.324l-0.062,0.129  L68.6,22.913l11.26,18.448l0.521,0.973l0.32,0.128L81.734,81.745L81.734,81.745z M79.02,79.417l-0.971-35.792L63.682,20.258  l-0.066-0.063l-6.988,15.856l10.482,30.938L73,73.462l4.596,4.66l1.1,1.23L79.02,79.417L79.02,79.417z M73.191,84.529L77.4,81.88  L66.854,70.937l-2.074,2.525L52.354,89.835l-0.258,0.584l5.564-0.584l14.176-4.397L73.191,84.529L73.191,84.529z M69.311,20.129  l-0.129-2.458l-3.172,0.904l1.684,1.684L69.311,20.129L69.311,20.129z M64.264,16.182l0.645-0.26L38.891,9.255l-0.066,0.13  l-1.228,0.323l24.27,6.279L64.264,16.182L64.264,16.182z M64.004,70.031l0.904-1.294l-9.902-28.996l-0.062-0.064l-2.59,5.954  l-2.46,42.911L64.004,70.031L64.004,70.031z M50.282,43.69L61.35,18.575l-29.773-7.636l-0.129,0.13l-8.479,33.138l-2.784,29.319  l26.536,16.439l0.388,0.065l2.524-43.366l-0.127-1.359L50.282,43.69L50.282,43.69z"/>
</svg>