<svg xmlns="http://www.w3.org/2000/svg" viewBox="0 0 64 80" x="0px" y="0px"><title>Artboard 19</title><path d="M17.5,48H0V46H17.5a.5.5,0,0,0,.5-.5V12.36a.36.36,0,0,0-.36-.36H0V10H17.64A2.36,2.36,0,0,1,20,12.36V45.5A2.5,2.5,0,0,1,17.5,48Z"/><path d="M24,53H0V51H23V8.63A1.63,1.63,0,0,0,21.37,7H0V5H21.37A3.64,3.64,0,0,1,25,8.63V52A1,1,0,0,1,24,53Z"/><path d="M26.73,60H0V58H26.73A1.27,1.27,0,0,0,28,56.73V54.27A1.27,1.27,0,0,0,26.73,53H0V51H26.73A3.27,3.27,0,0,1,30,54.27v2.46A3.27,3.27,0,0,1,26.73,60Z"/><path d="M49.11,60H43.89A6.9,6.9,0,0,1,37,53.11V37a1,1,0,0,1,1-1H55a1,1,0,0,1,1,1V53.11A6.9,6.9,0,0,1,49.11,60ZM39,38V53.11A4.9,4.9,0,0,0,43.89,58h5.22A4.9,4.9,0,0,0,54,53.11V38Z"/><path d="M55.39,54l-.78-1.85L58,50.77a1.69,1.69,0,0,0,1-1.56V44.69A1.69,1.69,0,0,0,57.31,43H55V41h2.31A3.7,3.7,0,0,1,61,44.69v4.52a3.7,3.7,0,0,1-2.26,3.41Z"/><path d="M40.46,34a1,1,0,0,1-1-1,2.38,2.38,0,0,1,1.17-2c.32-.25.37-.31.37-.37s0-.13-.37-.37a2.24,2.24,0,0,1,0-3.93c.32-.24.37-.3.37-.37a1,1,0,0,1,2,0,2.38,2.38,0,0,1-1.17,2c-.32.25-.37.31-.37.37s0,.13.37.38a2.23,2.23,0,0,1,0,3.92c-.32.25-.37.3-.37.37A1,1,0,0,1,40.46,34Z"/><path d="M52,34a1,1,0,0,1-1-1,2.38,2.38,0,0,1,1.17-2c.32-.25.37-.31.37-.37s0-.13-.37-.37a2.24,2.24,0,0,1,0-3.93c.32-.24.37-.3.37-.37a1,1,0,1,1,2,0,2.38,2.38,0,0,1-1.17,2c-.32.25-.37.31-.37.37s0,.13.37.38a2.23,2.23,0,0,1,0,3.92c-.32.25-.37.3-.37.37A1,1,0,0,1,52,34Z"/><path d="M46.46,34a1,1,0,0,1-1-1,2.38,2.38,0,0,1,1.17-2c.32-.25.37-.31.37-.37s0-.13-.37-.37a2.24,2.24,0,0,1,0-3.93c.32-.24.37-.3.37-.37a1,1,0,0,1,2,0,2.38,2.38,0,0,1-1.17,2c-.32.25-.37.31-.37.37s0,.13.37.38a2.23,2.23,0,0,1,0,3.92c-.32.25-.37.3-.37.37A1,1,0,0,1,46.46,34Z"/><rect y="59.85" width="64" height="2"/><path d="M27,6a1,1,0,0,1-.78-.37,1,1,0,0,1,.16-1.41l5-4a1,1,0,0,1,1.4.16,1,1,0,0,1-.16,1.4l-5,4A1,1,0,0,1,27,6Z"/><path d="M28,13a1,1,0,0,1-.95-.68,1,1,0,0,1,.63-1.27l6-2a1,1,0,0,1,.64,1.9l-6,2A1.25,1.25,0,0,1,28,13Z"/><path d="M19,4a1,1,0,0,1-1-1V1a1,1,0,0,1,2,0V3A1,1,0,0,1,19,4Z"/><path d="M14,25.64a3.22,3.22,0,0,1-.25,1.26A4.31,4.31,0,0,1,13.16,28a7,7,0,0,1-.85.87c-.32.27-.62.51-.92.73l-.82.62a2.91,2.91,0,0,0-.56.53,1.52,1.52,0,0,0-.19.33,1.1,1.1,0,0,0-.11.49,1.6,1.6,0,0,1-.44,1.18,1.84,1.84,0,0,1-1.38.47A2.1,2.1,0,0,1,7,33a1.78,1.78,0,0,1-.58-.44A1.6,1.6,0,0,1,6.06,32,2,2,0,0,1,6,31.42a3.38,3.38,0,0,1,.3-1.51,3.75,3.75,0,0,1,.77-1.06,6.58,6.58,0,0,1,1-.77,11,11,0,0,0,1-.69,3.87,3.87,0,0,0,.77-.8,2,2,0,0,0,.3-1.11,2.24,2.24,0,0,0-.23-1.09,1.54,1.54,0,0,0-.57-.59,2.33,2.33,0,0,0-.7-.24,5.15,5.15,0,0,0-.62,0,2.45,2.45,0,0,0-1.06.19,1.48,1.48,0,0,0-.87,1.13,3.88,3.88,0,0,0-.06.67,1.74,1.74,0,0,1-.2.88,1.78,1.78,0,0,1-.49.59,2.1,2.1,0,0,1-.65.33,2.33,2.33,0,0,1-.65.11,2.09,2.09,0,0,1-1.45-.5A1.64,1.64,0,0,1,2,25.64a6.89,6.89,0,0,1,.08-.89,5.44,5.44,0,0,1,.3-1.15A5.72,5.72,0,0,1,3,22.38a4.45,4.45,0,0,1,1.07-1.1,5.83,5.83,0,0,1,1.62-.8A7.68,7.68,0,0,1,8,20.18a7.78,7.78,0,0,1,2.63.4,5.2,5.2,0,0,1,1.89,1.13,4.8,4.8,0,0,1,1.14,1.72A6.07,6.07,0,0,1,14,25.64ZM10.16,36.8a2.17,2.17,0,0,1-.57,1.66A2.23,2.23,0,0,1,8,39a2.27,2.27,0,0,1-1.63-.54,2.17,2.17,0,0,1-.57-1.66,2.15,2.15,0,0,1,.57-1.66A2.36,2.36,0,0,1,8,34.63a2.32,2.32,0,0,1,1.64.51A2.22,2.22,0,0,1,10.16,36.8Z"/></svg>