<svg xmlns="http://www.w3.org/2000/svg" xmlns:xlink="http://www.w3.org/1999/xlink" version="1.1" id="Layer_1" x="0px" y="0px" width="15.086px" height="19.676px" viewBox="0 0 15.086 19.676" enable-background="new 0 0 15.086 19.676" xml:space="preserve">
<g>
	<path d="M15.086,5.629c0-0.759-0.494-1.403-1.178-1.631c-0.056-1.05-0.925-1.887-1.988-1.887c-0.371,0-0.717,0.104-1.016,0.28   c-0.527-0.825-1.45-1.375-2.502-1.375c-0.356,0-0.698,0.067-1.015,0.184C7.127,0.501,6.455,0,5.667,0   C4.653,0,3.83,0.824,3.83,1.838c0,0.056,0.003,0.11,0.008,0.165C3.609,1.947,3.372,1.916,3.127,1.916   c-1.682,0-3.05,1.367-3.05,3.048c0,1.682,1.368,3.048,3.05,3.048c0.104,0,0.21-0.005,0.312-0.016v1.746   C3.075,9.52,2.68,9.381,2.21,9.381C0.95,9.381,0,10.977,0,13.094s0.95,3.713,2.21,3.713c0.425,0,0.854-0.172,1.229-0.396v0.357   c0,1.604,1.305,2.908,2.908,2.908h4.854c1.604,0,2.908-1.304,2.908-2.908V7.426c0-0.081-0.006-0.163-0.013-0.243   C14.681,6.907,15.086,6.315,15.086,5.629z M2.21,15.634c-0.413,0-1.038-1.013-1.038-2.54s0.625-2.541,1.038-2.541   c0.37,0,0.669,0.161,1.229,0.684v3.713C3.068,15.298,2.526,15.634,2.21,15.634z M11.201,18.034H6.347   c-0.695,0-1.266-0.57-1.266-1.267V7.477C5.502,7.881,6.072,8.131,6.7,8.131c0.874,0,1.638-0.482,2.041-1.194   c0.023-0.003,0.048-0.008,0.071-0.011c0.271,0.283,0.652,0.462,1.075,0.462c0.173,0,0.34-0.031,0.494-0.086   c0.261,0.426,0.73,0.711,1.266,0.711c0.303,0,0.585-0.091,0.82-0.247v9.002C12.468,17.464,11.897,18.034,11.201,18.034z"/>
	<path d="M6.778,9.987c-0.272,0-0.493,0.221-0.493,0.492v5.384c0,0.272,0.221,0.493,0.493,0.493c0.271,0,0.492-0.221,0.492-0.493   v-5.384C7.271,10.208,7.05,9.987,6.778,9.987z"/>
	<path d="M8.754,9.987c-0.271,0-0.492,0.221-0.492,0.492v5.384c0,0.272,0.221,0.493,0.492,0.493c0.272,0,0.493-0.221,0.493-0.493   v-5.384C9.247,10.208,9.026,9.987,8.754,9.987z"/>
	<path d="M10.716,9.987c-0.271,0-0.493,0.221-0.493,0.492v5.384c0,0.272,0.222,0.493,0.493,0.493s0.493-0.221,0.493-0.493v-5.384   C11.209,10.208,10.987,9.987,10.716,9.987z"/>
</g>
</svg>